<?xml version="1.0" encoding="utf-8"?>
<!-- Generator: Adobe Illustrator 26.2.1, SVG Export Plug-In . SVG Version: 6.00 Build 0)  -->
<svg version="1.1" id="Layer_1" xmlns="http://www.w3.org/2000/svg" xmlns:xlink="http://www.w3.org/1999/xlink" x="0px" y="0px"
	 viewBox="0 0 32 32" style="enable-background:new 0 0 32 32;" xml:space="preserve">
<style type="text/css">
	.st0{fill-rule:evenodd;clip-rule:evenodd;fill:#433830;}
</style>
<path class="st0" d="M16,0.4c-8.8,0-16,7.2-16,16c0,6.9,4.4,13,10.9,15.1c0.8,0.1,1.1-0.4,1.1-0.8c0-0.4,0-1.4,0-2.7
	c-4.4,1-5.4-2.1-5.4-2.1c-0.3-1-0.9-1.8-1.8-2.3c-1.5-1,0.1-1,0.1-1c1,0.1,1.9,0.8,2.5,1.6c0.9,1.7,3,2.3,4.6,1.3c0,0,0,0,0,0
	c0.1-0.8,0.4-1.6,1-2.1c-3.6-0.4-7.4-1.8-7.4-7.9c0-1.6,0.6-3.1,1.6-4.3C6.9,9.9,7,8.4,7.6,7c0,0,1.3-0.4,4.4,1.6
	c2.6-0.7,5.4-0.7,8,0C23,6.6,24.3,7,24.3,7c0.6,1.3,0.6,2.9,0.2,4.2c1.1,1.2,1.7,2.7,1.7,4.3c0,6.1-3.7,7.5-7.3,7.9
	c0.8,0.8,1.2,1.9,1.1,3c0,2.1,0,3.9,0,4.4c0,0.5,0.3,0.9,1.1,0.8c8.4-2.8,12.9-11.9,10.1-20.3C29.1,4.8,22.9,0.4,16,0.4z"/>
</svg>
