<?xml version="1.0" encoding="utf-8"?>
<!-- Generator: Adobe Illustrator 26.2.1, SVG Export Plug-In . SVG Version: 6.00 Build 0)  -->
<svg version="1.1" id="Layer_1" xmlns="http://www.w3.org/2000/svg" xmlns:xlink="http://www.w3.org/1999/xlink" x="0px" y="0px"
	 viewBox="0 0 32 32" style="enable-background:new 0 0 32 32;" xml:space="preserve">
<style type="text/css">
	.st0{fill:#433830;}
</style>
<g>
	<path class="st0" d="M16,4.8c3.7,0,4.1,0,5.5,0.1c0.9,0,1.7,0.2,2.5,0.5c1.2,0.5,2.1,1.4,2.6,2.6c0.3,0.8,0.5,1.7,0.5,2.6
		c0.1,1.4,0.1,1.9,0.1,5.5s0,4.1-0.1,5.5c0,0.9-0.2,1.7-0.5,2.5c-0.5,1.2-1.4,2.1-2.6,2.6c-0.8,0.3-1.7,0.5-2.5,0.5
		c-1.5,0.1-1.9,0.1-5.5,0.1s-4.1,0-5.5-0.1c-0.9,0-1.7-0.2-2.6-0.5c-1.2-0.5-2.1-1.4-2.6-2.6c-0.3-0.8-0.5-1.7-0.5-2.5
		c-0.1-1.5-0.1-1.9-0.1-5.5s0-4.1,0.1-5.5c0-0.9,0.2-1.7,0.5-2.6c0.5-1.2,1.4-2.1,2.6-2.6C8.7,5,9.6,4.8,10.5,4.8
		C11.9,4.8,12.3,4.8,16,4.8 M16,2.3c-3.7,0-4.2,0-5.6,0.1C9.2,2.4,8.1,2.6,7,3C5.2,3.7,3.7,5.2,3,7c-0.4,1.1-0.6,2.2-0.6,3.3
		c-0.1,1.5-0.1,1.9-0.1,5.6s0,4.2,0.1,5.6c0,1.2,0.2,2.3,0.6,3.4c0.7,1.8,2.2,3.3,4,4c1.1,0.4,2.2,0.6,3.3,0.6
		c1.5,0.1,1.9,0.1,5.6,0.1s4.2,0,5.6-0.1c1.2,0,2.3-0.2,3.4-0.6c1.8-0.7,3.3-2.2,4-4c0.4-1.1,0.6-2.2,0.6-3.3
		c0.1-1.5,0.1-1.9,0.1-5.6s0-4.2-0.1-5.6c0-1.2-0.2-2.3-0.6-3.4c-0.7-1.8-2.2-3.3-4-4c-1.1-0.4-2.2-0.6-3.3-0.6
		C20.2,2.3,19.7,2.3,16,2.3L16,2.3z"/>
	<path class="st0" d="M16,9c-3.9,0-7,3.1-7,7s3.1,7,7,7s7-3.1,7-7S19.9,9,16,9z M16,20.6c-2.5,0-4.6-2-4.6-4.6c0-2.5,2-4.6,4.6-4.6
		c2.5,0,4.5,2,4.6,4.5C20.6,18.5,18.5,20.6,16,20.6L16,20.6z"/>
	<circle class="st0" cx="23.3" cy="8.7" r="1.6"/>
</g>
</svg>
