<?xml version="1.0" encoding="utf-8"?>
<!-- Generator: Adobe Illustrator 26.2.1, SVG Export Plug-In . SVG Version: 6.00 Build 0)  -->
<svg version="1.1" id="Layer_1" xmlns="http://www.w3.org/2000/svg" xmlns:xlink="http://www.w3.org/1999/xlink" x="0px" y="0px"
	 viewBox="0 0 32 32" style="enable-background:new 0 0 32 32;" xml:space="preserve">
<style type="text/css">
	.st0{fill-rule:evenodd;clip-rule:evenodd;fill:#433830;}
</style>
<path id="logo" class="st0" d="M11,28.9C22,28.9,28,19.3,28,11c0-0.3,0-0.5,0-0.8c1.2-0.9,2.2-2,3-3.3c-1.1,0.5-2.2,0.8-3.4,1
	c1.3-0.8,2.2-2,2.6-3.5C29,5.2,27.7,5.7,26.4,6c-1.1-1.3-2.7-2-4.3-2c-3.4,0.1-6,2.9-6,6.3c0,0.5,0.1,1,0.2,1.4
	c-4.9-0.3-9.3-2.7-12.3-6.6c-0.5,1-0.8,2.1-0.8,3.2c0,2.1,1,4,2.6,5.2c-1,0-1.9-0.3-2.7-0.8c0,0,0,0.1,0,0.1C3,15.8,5,18.4,7.9,19
	c-0.9,0.3-1.8,0.3-2.7,0.1c0.7,2.5,3,4.3,5.6,4.4c-2.5,2.1-5.6,3-8.8,2.6C4.6,27.9,7.8,28.9,11,28.9"/>
</svg>
